<?xml version="1.0" standalone="no"?>
<!DOCTYPE svg PUBLIC "-//W3C//DTD SVG 20010904//EN"
 "http://www.w3.org/TR/2001/REC-SVG-20010904/DTD/svg10.dtd">
<svg version="1.0" xmlns="http://www.w3.org/2000/svg"
 width="1890.000000pt" height="1417.000000pt" viewBox="0 0 1890.000000 1417.000000"
 preserveAspectRatio="xMidYMid meet">

<g transform="translate(0.000000,1417.000000) scale(0.100000,-0.100000)"
fill="#000000" stroke="none">
<path d="M7765 11278 c-2 -7 -8 -89 -14 -183 -23 -375 -109 -636 -286 -865
-285 -368 -771 -555 -1520 -585 -71 -2 -144 -5 -161 -5 -20 0 -34 -6 -38 -17
-9 -21 -41 -378 -61 -661 -52 -751 21 -1579 203 -2297 39 -157 44 -204 22
-216 -8 -4 -143 -71 -300 -148 -157 -78 -328 -167 -380 -199 l-95 -57 1 -45
c1 -39 22 -81 151 -305 176 -305 397 -693 428 -751 38 -68 77 -128 94 -142 58
-46 208 -101 581 -212 332 -99 449 -138 471 -159 12 -11 36 -25 53 -31 18 -6
44 -28 61 -53 16 -23 82 -107 146 -187 388 -484 889 -954 1409 -1324 359 -255
889 -584 903 -560 4 7 22 16 40 19 159 34 862 492 1273 829 415 341 857 788
1126 1139 49 65 108 131 130 147 57 42 161 79 471 171 433 128 647 207 647
240 0 5 18 33 41 61 22 28 75 110 118 182 71 121 135 236 424 761 l104 190
-28 41 c-28 41 -66 68 -184 130 -33 17 -91 48 -130 68 -38 20 -146 73 -239
117 -93 44 -177 90 -187 102 -25 30 -24 55 12 209 17 73 35 156 39 183 5 28
17 93 28 145 118 562 163 1122 142 1782 -10 299 -21 455 -51 722 -15 135 -10
132 -209 135 -189 3 -370 23 -553 61 -479 100 -802 300 -1024 634 -141 213
-205 422 -234 771 -6 77 -15 148 -21 158 -8 16 -100 17 -1704 17 -1347 0
-1695 -3 -1699 -12z m1650 -2103 l0 -1970 -140 -7 c-415 -22 -548 -31 -620
-39 -44 -5 -161 -18 -260 -30 -432 -50 -1035 -172 -1405 -286 -327 -101 -532
-171 -745 -257 -100 -40 -164 -61 -171 -55 -23 18 -87 284 -145 599 -131 710
-154 1483 -69 2269 5 46 15 90 21 97 9 11 42 14 133 14 339 0 796 101 1059
234 169 86 271 159 393 280 119 119 178 202 254 354 87 174 153 420 165 619 4
48 8 103 11 121 l5 32 757 -2 757 -3 0 -1970z m1669 1923 c32 -331 64 -477
143 -658 202 -466 609 -753 1238 -875 211 -41 343 -55 506 -55 132 0 131 1
143 -76 16 -107 36 -407 46 -681 24 -646 -30 -1268 -160 -1868 -16 -77 -36
-160 -44 -185 -8 -25 -20 -70 -27 -100 -19 -83 -21 -84 -119 -44 -204 83 -558
208 -765 269 -262 78 -702 185 -900 219 -49 9 -143 25 -207 36 -129 22 -554
74 -732 90 -64 5 -230 14 -371 20 -141 5 -261 12 -266 15 -10 7 -13 3928 -2
3938 3 4 345 7 759 7 l753 0 5 -52z m-1034 -4058 c210 -12 415 -34 755 -80
323 -44 776 -145 1200 -268 263 -76 761 -261 990 -367 44 -20 105 -48 135 -62
226 -104 550 -276 550 -292 0 -4 -46 -88 -102 -187 -55 -98 -118 -208 -138
-244 -60 -106 -279 -489 -322 -563 -22 -38 -45 -70 -52 -73 -7 -3 -104 42
-217 99 -112 57 -244 121 -294 142 -342 146 -532 214 -915 328 -208 62 -683
167 -895 197 -77 11 -169 24 -205 30 -233 36 -738 70 -1060 70 -608 0 -1279
-81 -1870 -226 -457 -112 -912 -269 -1280 -441 -123 -58 -327 -160 -374 -188
-34 -20 -45 -23 -53 -13 -5 7 -49 83 -98 168 -48 85 -102 180 -120 210 -17 30
-80 141 -140 245 -59 105 -139 244 -177 309 -38 66 -67 126 -66 135 8 39 546
307 908 452 69 28 161 65 205 83 88 35 494 170 650 215 182 53 319 89 360 96
22 4 94 20 160 36 106 25 168 37 405 80 165 30 610 86 800 100 358 28 869 31
1260 9z m-632 -3012 c2 -1368 0 -1598 -12 -1598 -31 0 -440 252 -656 405 -860
605 -1508 1287 -2003 2107 -43 69 -77 133 -77 140 0 21 269 125 510 198 58 17
141 42 185 55 441 132 1062 240 1575 275 254 17 258 17 370 16 l105 -1 3
-1597z m1233 1295 c112 -56 194 -154 250 -298 56 -146 65 -225 26 -225 -7 0
-61 -18 -120 -40 -59 -21 -113 -37 -120 -34 -7 3 -27 38 -46 77 -19 40 -43 83
-53 97 -31 40 -88 70 -134 70 -137 0 -223 -196 -224 -510 0 -238 52 -423 144
-509 39 -37 124 -42 172 -10 44 30 112 162 121 235 9 81 11 82 90 47 37 -17
95 -46 128 -65 l60 -34 -2 -45 c-3 -44 -9 -71 -45 -189 -50 -159 -145 -287
-253 -337 -118 -54 -278 -40 -396 36 -137 88 -261 303 -300 521 -47 266 -38
616 22 810 33 105 96 223 155 288 64 71 101 95 192 129 57 20 82 23 168 21 89
-3 107 -7 165 -35z m1855 -309 c80 -33 383 -184 388 -193 9 -14 -3 -19 -112
-51 -53 -16 -142 -42 -197 -60 -55 -17 -158 -49 -230 -71 -71 -22 -138 -42
-147 -46 -24 -7 -23 20 1 55 42 59 182 284 206 332 28 55 35 57 91 34z"/>
<path d="M9082 10828 c-8 -8 -12 -67 -12 -199 l0 -186 40 0 40 0 0 192 c0 167
-2 194 -16 199 -24 9 -39 7 -52 -6z"/>
<path d="M9075 9951 c-3 -2 -5 -98 -5 -212 l0 -208 40 1 40 0 0 213 0 213 -35
-1 c-20 -1 -38 -3 -40 -6z"/>
<path d="M7990 9862 c0 -5 33 -24 74 -42 123 -53 141 -84 145 -245 2 -57 4
-66 12 -45 6 14 8 32 6 41 -8 30 8 43 32 27 19 -11 23 -11 32 5 6 9 13 17 17
17 4 0 39 -22 77 -50 38 -27 75 -50 82 -50 27 0 12 31 -27 55 -57 36 -52 47
19 39 95 -10 90 25 -6 41 -27 4 -43 12 -46 24 -3 14 -18 19 -61 24 -66 7 -122
33 -186 86 -25 21 -58 45 -75 53 -40 21 -95 32 -95 20z m275 -210 c-8 -9 -35
20 -28 31 4 6 11 3 19 -8 8 -10 12 -21 9 -23z"/>
<path d="M7863 9838 c-53 -21 -64 -36 -40 -57 10 -8 19 -4 36 19 12 17 27 30
34 30 7 0 22 7 33 15 28 21 0 18 -63 -7z"/>
<path d="M7600 9827 c-29 -14 -40 -47 -16 -47 9 0 23 11 32 25 14 22 21 24 55
19 26 -4 39 -3 39 5 0 15 -79 14 -110 -2z"/>
<path d="M7980 9784 c0 -9 -9 -18 -20 -21 -25 -7 -21 -27 6 -30 26 -4 68 33
60 52 -7 20 -46 19 -46 -1z"/>
<path d="M7810 9715 c26 -28 35 -27 25 4 -4 13 -15 21 -27 21 -21 0 -21 0 2
-25z"/>
<path d="M7080 9700 c-17 -17 -20 -33 -20 -99 l0 -78 38 1 c20 0 40 6 43 11 3
6 4 49 1 98 -4 77 -6 87 -23 87 -10 0 -28 -9 -39 -20z"/>
<path d="M7900 9614 c0 -11 63 -94 72 -94 12 0 10 13 -9 40 -30 42 -63 71 -63
54z"/>
<path d="M8179 9424 c-60 -64 -116 -70 -166 -18 -19 20 -35 35 -37 33 -1 -2
-12 -21 -24 -41 -17 -31 -19 -41 -9 -62 8 -18 17 -24 29 -20 13 4 24 -5 39
-30 25 -43 32 -44 47 -11 14 31 29 32 60 3 l24 -23 38 44 39 45 44 -41 c24
-22 54 -46 66 -52 11 -7 21 -18 21 -26 0 -13 -30 -15 -193 -15 -129 0 -197 4
-204 11 -6 6 -9 26 -6 45 3 19 1 34 -4 34 -11 0 -37 -91 -53 -190 -7 -36 -16
-78 -21 -94 -7 -23 -5 -34 8 -48 9 -10 20 -41 24 -69 5 -28 15 -59 24 -69 8
-9 15 -23 15 -31 0 -8 9 -20 20 -27 11 -6 29 -31 41 -54 12 -24 27 -50 33 -58
7 -8 21 -41 31 -73 25 -75 16 -93 -46 -89 -69 5 -134 82 -68 82 27 0 24 11
-21 68 -22 27 -40 59 -40 71 0 13 -6 21 -16 21 -9 0 -58 25 -109 55 -50 30
-97 55 -103 55 -6 0 -16 9 -22 20 -9 17 -14 18 -30 7 -11 -6 -20 -14 -20 -18
0 -3 37 -23 83 -44 45 -21 96 -48 112 -59 48 -33 135 -119 129 -128 -3 -4 -18
-8 -35 -8 -19 0 -29 -5 -29 -14 0 -8 -4 -17 -9 -21 -12 -7 -63 15 -74 32 -11
18 -32 16 -47 -2 -7 -9 -19 -14 -26 -11 -13 5 -24 -14 -24 -40 0 -19 16 -18
37 4 22 23 51 34 58 23 3 -5 -2 -25 -10 -45 -26 -61 2 -79 29 -21 18 37 34 45
41 20 16 -50 17 -50 29 -16 7 19 17 36 23 38 13 5 73 -90 73 -116 0 -11 -12
-23 -30 -31 -26 -11 -33 -10 -50 5 -19 17 -20 17 -30 -9 -5 -15 -10 -32 -10
-37 0 -5 -21 -23 -47 -39 -40 -26 -44 -30 -22 -30 23 0 58 19 87 47 7 7 29 15
48 19 54 10 256 -1 282 -15 18 -10 26 -10 38 0 11 9 23 9 53 0 46 -13 61 -49
36 -87 -8 -13 -15 -31 -15 -40 0 -15 4 -14 24 5 14 13 30 36 37 52 13 33 32
34 37 1 2 -12 8 -22 14 -22 6 0 8 9 3 23 -20 66 -20 67 19 67 32 0 38 -4 47
-30 7 -19 18 -30 30 -30 10 0 19 -7 19 -15 0 -8 5 -15 10 -15 14 0 13 10 -3
29 -21 25 -41 97 -31 112 5 8 11 41 14 74 6 69 21 79 68 45 18 -13 57 -26 103
-32 41 -6 80 -16 87 -21 8 -6 12 -42 12 -113 0 -71 4 -104 11 -104 8 0 10 15
6 45 -8 72 3 77 152 74 l126 -3 3 63 3 63 -131 -5 c-72 -2 -132 -1 -135 3 -6
10 22 33 70 59 62 32 98 66 93 87 -2 12 -11 18 -23 17 -31 -3 -34 16 -13 65
16 35 18 49 9 68 -14 31 -32 30 -61 -1 -33 -35 -50 -32 -50 9 0 24 -7 38 -22
48 -21 14 -22 18 -10 64 11 43 10 55 -4 89 -22 54 -41 74 -92 96 -60 26 -61
24 -3 -21 84 -66 99 -119 59 -200 -23 -46 -56 -62 -81 -42 -7 5 -32 13 -57 16
-43 6 -44 6 -20 -8 14 -9 35 -15 47 -16 52 0 34 -44 -22 -54 -43 -8 -45 -21
-5 -29 37 -8 53 -2 111 40 46 33 47 33 69 15 l23 -19 -23 -30 c-22 -30 -21
-53 3 -53 6 0 30 19 53 41 60 59 83 40 44 -36 -24 -47 -25 -61 -5 -69 8 -3 12
-12 9 -20 -8 -22 -143 -85 -195 -92 -48 -7 -57 -3 -208 82 -59 33 -93 67 -117
119 -25 53 -31 123 -14 156 11 20 45 26 54 10 9 -15 95 -41 113 -34 11 4 0 12
-33 25 -27 10 -60 27 -73 37 -24 18 -24 18 -5 49 22 38 9 61 -24 43 -13 -7
-105 -11 -256 -11 l-236 0 -17 26 c-35 54 -26 56 287 58 271 1 289 2 363 25
43 13 74 27 70 31 -4 4 -59 30 -122 59 -182 82 -257 142 -276 224 -9 34 -15
34 -46 1z m-141 -56 c14 -14 16 -48 3 -48 -11 0 -41 28 -41 39 0 21 21 26 38
9z m130 -34 c-26 -26 -48 -26 -48 1 0 19 52 46 65 34 6 -6 0 -19 -17 -35z
m170 -493 c5 -33 -34 -41 -196 -41 -127 0 -150 3 -171 19 -13 10 -22 25 -19
32 4 11 42 14 194 13 184 -2 189 -2 192 -23z m43 -162 c9 -5 37 -29 63 -53 46
-45 58 -82 37 -115 -5 -7 -5 -29 0 -50 7 -29 5 -39 -9 -49 -17 -13 -89 -11
-111 2 -6 4 -29 38 -52 76 -23 39 -48 70 -55 70 -16 0 -19 -65 -5 -103 13 -35
2 -45 -54 -47 -81 -4 -85 0 -85 89 0 65 -4 82 -25 113 -34 50 -32 66 8 70 73
7 273 5 288 -3z m-306 -239 c0 -23 -5 -25 -46 -28 -31 -2 -50 2 -58 12 -17 21
22 45 68 42 31 -2 36 -5 36 -26z m958 23 c12 -3 17 -12 15 -26 -3 -21 -9 -22
-98 -25 -121 -4 -160 3 -160 28 0 12 8 20 23 22 37 6 201 7 220 1z m-725 -34
c-2 -6 -8 -10 -13 -10 -5 0 -11 4 -13 10 -2 6 4 11 13 11 9 0 15 -5 13 -11z
m46 -71 c5 -9 7 -20 3 -25 -11 -10 -41 11 -45 31 -5 23 26 18 42 -6z"/>
<path d="M7886 9328 c-24 -18 -116 -147 -116 -164 0 -2 -18 -32 -40 -66 -21
-33 -37 -65 -33 -71 4 -6 11 -3 18 6 16 22 31 21 62 -3 14 -11 35 -20 47 -20
19 0 18 2 -9 25 -16 13 -36 24 -44 25 -10 0 -12 9 -8 37 4 20 10 39 15 42 13
8 144 202 140 206 -2 2 -16 -6 -32 -17z"/>
<path d="M7060 8885 c0 -227 2 -256 15 -245 8 7 25 10 40 6 l25 -6 0 245 0
245 -25 -6 c-15 -4 -32 -1 -40 6 -13 11 -15 -18 -15 -245z"/>
<path d="M9075 9118 c-3 -8 -4 -117 -3 -243 l3 -230 35 1 35 0 3 230 c2 236 0
266 -20 246 -8 -8 -17 -8 -30 -1 -13 7 -20 6 -23 -3z"/>
<path d="M7676 9001 c-4 -7 -5 -15 -2 -18 9 -9 19 4 14 18 -4 11 -6 11 -12 0z"/>
<path d="M7650 8945 c0 -8 2 -15 4 -15 2 0 6 7 10 15 3 8 1 15 -4 15 -6 0 -10
-7 -10 -15z"/>
<path d="M7487 8873 c-18 -5 -18 -5 0 -18 13 -9 20 -27 21 -52 1 -34 -4 -45
-42 -82 -48 -47 -76 -50 -76 -7 0 13 -3 31 -6 39 -8 21 23 47 57 47 31 0 39
14 14 24 -8 3 -15 12 -15 21 0 33 -43 12 -73 -37 -27 -43 -21 -78 32 -203 35
-84 35 -80 18 -97 -10 -10 -44 -12 -146 -8 -73 3 -135 3 -137 1 -2 -2 -4 -36
-4 -74 0 -62 2 -68 18 -61 9 5 92 10 184 12 l166 3 52 -32 c30 -18 71 -34 97
-37 61 -7 50 9 -26 37 -122 44 -187 142 -174 262 5 53 10 63 58 114 29 30 58
55 65 55 8 0 4 10 -10 25 -23 24 -23 25 -5 45 18 19 18 20 -3 20 -11 0 -26 2
-34 4 -7 2 -21 1 -31 -1z m-42 -417 c11 -8 16 -19 12 -30 -5 -14 -25 -16 -135
-16 -99 0 -133 3 -148 15 -19 15 -19 15 0 30 27 20 243 22 271 1z"/>
<path d="M7595 8770 c3 -5 33 -21 66 -36 33 -15 81 -42 106 -60 56 -40 73 -35
23 7 -67 55 -216 124 -195 89z"/>
<path d="M7597 8629 c-39 -45 -64 -47 -82 -7 -9 20 -55 39 -55 23 0 -16 67
-85 83 -85 9 0 38 19 62 41 29 27 50 39 61 35 12 -5 15 -2 10 10 -3 8 -6 18
-6 20 0 2 -9 4 -19 4 -11 0 -35 -18 -54 -41z"/>
<path d="M7061 8394 c0 -11 3 -14 6 -6 3 7 2 16 -1 19 -3 4 -6 -2 -5 -13z"/>
<path d="M8540 8370 c0 -6 7 -24 15 -41 14 -27 14 -33 1 -60 -19 -39 -7 -75
31 -91 16 -6 43 -17 62 -26 19 -8 56 -15 83 -17 69 -4 92 24 68 80 -7 17 -9
15 -9 -11 -1 -34 -26 -63 -41 -48 -5 5 -10 32 -12 59 -2 29 -7 48 -13 45 -5
-3 -9 -24 -7 -47 2 -26 -1 -43 -7 -43 -15 0 -32 36 -25 53 3 8 1 18 -5 22 -6
3 -11 21 -11 39 0 30 -15 56 -32 56 -13 0 -9 -24 12 -65 26 -50 26 -82 0 -90
-24 -8 -40 1 -40 21 0 7 -9 19 -19 26 -14 9 -18 19 -14 38 6 31 -14 110 -27
110 -6 0 -10 -5 -10 -10z"/>
<path d="M8206 8312 c-12 -19 3 -87 16 -74 7 7 7 23 1 49 -6 26 -11 34 -17 25z"/>
<path d="M8471 8274 c0 -11 3 -14 6 -6 3 7 2 16 -1 19 -3 4 -6 -2 -5 -13z"/>
<path d="M7060 7992 l0 -257 40 -1 40 -1 2 233 c1 129 2 242 2 252 1 12 -7 17
-26 17 -14 0 -30 3 -34 8 -4 4 -11 7 -16 7 -4 0 -8 -116 -8 -258z"/>
<path d="M9072 7987 l3 -251 38 -1 37 -2 0 251 0 251 -40 1 -40 1 2 -250z"/>
<path d="M8267 8197 c-4 -10 -7 -35 -7 -56 0 -20 -5 -42 -12 -49 -9 -9 -9 -18
0 -37 17 -37 15 -55 -8 -55 -53 0 -92 47 -56 67 20 11 34 67 15 61 -7 -2 -16
-15 -19 -27 -3 -14 -20 -30 -40 -40 -40 -18 -53 -57 -23 -67 52 -17 141 -59
159 -76 19 -17 22 -17 28 -3 10 28 7 48 -19 103 -22 48 -23 58 -14 102 12 56
9 109 -4 77z"/>
<path d="M8390 8193 c0 -10 -7 -31 -15 -47 -24 -45 -19 -115 10 -158 14 -20
25 -43 25 -49 0 -9 3 -10 10 -3 9 9 -3 57 -28 101 -16 28 -15 62 3 93 17 29
19 66 5 75 -5 3 -10 -2 -10 -12z"/>
<path d="M8461 8193 c1 -10 5 -29 9 -43 7 -21 8 -19 9 18 1 23 -3 42 -9 42 -5
0 -10 -8 -9 -17z"/>
<path d="M8494 8086 c4 -22 1 -48 -9 -72 -20 -47 -19 -51 5 -29 10 9 24 33 31
52 9 28 8 38 -5 58 -23 34 -29 31 -22 -9z"/>
<path d="M8100 7916 c0 -29 4 -36 19 -36 29 0 130 -49 140 -68 4 -9 6 -23 4
-29 -8 -23 -47 -14 -101 24 -61 42 -72 37 -72 -34 0 -36 3 -43 20 -43 16 0 20
-7 20 -35 0 -23 -6 -38 -15 -41 -23 -9 -47 16 -42 43 5 29 -1 29 -33 -2 -15
-14 -58 -37 -95 -51 -81 -29 -115 -49 -115 -68 0 -7 -9 -25 -20 -39 -22 -28
-26 -67 -10 -98 8 -14 21 -19 51 -19 22 0 50 -7 64 -16 32 -21 81 -21 105 1
13 12 27 15 45 11 22 -6 32 -1 59 28 28 31 36 35 68 30 94 -16 137 96 82 212
-15 31 -15 38 0 83 28 87 26 91 -71 136 -47 22 -89 42 -94 43 -5 2 -9 -12 -9
-32z m76 -180 c3 -8 23 -22 45 -30 34 -14 38 -19 30 -35 -6 -10 -27 -28 -47
-40 -49 -29 -62 -16 -44 40 13 37 12 42 -3 51 -10 5 -15 13 -12 19 9 14 25 11
31 -5z m-224 -158 c-9 -9 -15 -9 -23 -1 -7 7 -9 20 -5 29 6 16 8 16 23 1 13
-13 15 -19 5 -29z m183 22 c15 -16 16 -25 7 -45 -6 -13 -22 -31 -35 -40 -22
-14 -28 -14 -72 2 -51 19 -71 43 -37 43 11 0 23 7 26 16 4 11 14 14 35 9 23
-5 29 -2 34 14 7 26 19 26 42 1z m-180 -61 c33 -18 73 -35 89 -38 76 -17 5
-61 -97 -61 -103 0 -160 57 -110 112 23 26 50 23 118 -13z"/>
<path d="M8480 7946 c0 -4 8 -21 17 -37 23 -38 9 -52 -42 -41 -29 6 -41 14
-45 31 l-5 23 -19 -21 c-18 -20 -18 -34 -1 -116 3 -16 8 -40 11 -52 4 -21 10
-23 59 -23 29 0 57 -4 60 -10 17 -28 42 22 30 61 -5 15 -10 17 -25 9 -23 -12
-99 2 -111 21 -22 36 63 46 103 12 9 -8 22 -12 27 -8 12 7 15 85 3 100 -14 19
-62 58 -62 51z"/>
<path d="M8400 7649 c0 -38 -12 -61 -66 -126 -54 -63 -57 -102 -16 -183 31
-60 50 -70 87 -46 32 21 32 36 1 36 -32 0 -70 32 -91 77 -17 35 -17 38 0 70
10 18 23 32 29 30 13 -5 13 -43 1 -71 -7 -16 -5 -18 11 -12 49 20 96 19 134
-3 28 -16 40 -18 46 -10 8 13 -56 74 -88 85 -26 8 -22 33 10 60 26 23 26 24 5
24 -13 0 -23 -4 -23 -10 0 -16 -17 -11 -24 7 -16 40 66 57 88 18 6 -11 28 -40
49 -64 30 -35 37 -52 37 -85 0 -50 -42 -103 -90 -112 -37 -8 -39 -28 -4 -51
26 -17 27 -16 56 18 82 96 86 130 28 242 -22 42 -40 91 -40 108 0 26 -3 30
-17 23 -23 -9 -50 -10 -90 -1 -32 6 -33 5 -33 -24z"/>
<path d="M11060 9947 c-31 -19 -47 -22 -133 -20 -113 3 -134 -4 -191 -68 l-38
-42 -37 42 c-29 34 -45 44 -78 48 -56 7 -86 -1 -127 -38 -91 -80 -83 -219 23
-372 52 -76 121 -84 171 -19 35 44 72 180 67 243 -3 31 -2 61 2 66 12 20 48
23 97 8 65 -20 103 -19 156 4 67 28 156 137 132 161 -6 6 -23 1 -44 -13z"/>
<path d="M10992 9633 c-22 -9 -42 -60 -42 -108 0 -55 25 -118 97 -241 63 -109
73 -146 47 -175 -11 -12 -56 -39 -102 -61 -137 -67 -194 -140 -213 -275 -7
-46 -23 -101 -40 -133 -32 -64 -119 -192 -134 -197 -6 -2 -10 64 -11 185 -1
183 -2 190 -38 327 -20 77 -41 156 -46 176 -5 19 -23 50 -40 69 -21 24 -30 44
-30 69 0 20 -5 43 -10 51 -16 23 -47 -21 -56 -76 -11 -76 0 -135 76 -414 19
-70 20 -92 14 -335 -4 -151 -12 -277 -19 -300 -6 -22 -52 -98 -101 -170 -49
-71 -100 -148 -114 -170 -52 -86 -292 -445 -301 -451 -15 -9 -21 1 -28 43 -5
30 -11 39 -29 41 -40 6 -62 -24 -62 -84 0 -45 5 -59 30 -88 41 -46 89 -55 132
-25 32 23 116 148 253 374 193 321 248 404 265 410 18 6 60 78 60 104 0 27
235 411 256 418 7 2 10 -37 10 -119 0 -100 3 -132 20 -173 27 -69 46 -66 49 7
5 98 77 191 157 205 21 3 74 -5 138 -21 181 -46 261 -32 378 63 23 20 42 44
42 54 0 11 -21 38 -47 61 -26 22 -101 89 -167 149 -66 59 -127 107 -135 107
-9 0 -47 -31 -84 -69 -50 -49 -94 -82 -160 -116 -51 -27 -104 -56 -119 -67
-44 -31 -50 -20 -19 40 16 31 35 77 42 101 10 35 22 50 58 72 24 16 60 34 80
40 74 24 186 88 209 118 37 51 35 63 -71 306 -75 172 -96 213 -127 248 -31 36
-42 41 -68 30z"/>
<path d="M10816 9522 c-223 -128 -331 -200 -334 -221 -5 -34 6 -71 23 -71 7 0
67 35 132 78 65 43 148 98 186 121 68 45 83 71 55 99 -15 15 -26 14 -62 -6z"/>
<path d="M10815 9337 c-45 -28 -120 -77 -168 -107 -55 -35 -87 -61 -87 -72 0
-10 6 -18 14 -18 7 0 34 -12 59 -26 30 -16 52 -22 61 -17 43 25 255 221 255
236 1 28 -18 57 -37 57 -9 0 -53 -24 -97 -53z"/>
<path d="M10955 9217 c-22 -23 -75 -71 -117 -107 -42 -36 -77 -72 -77 -81 -1
-19 45 -53 62 -46 14 6 137 95 190 138 20 16 37 35 37 42 0 22 -35 97 -45 97
-5 0 -28 -20 -50 -43z"/>
<path d="M11560 8499 c-49 -43 -125 -77 -187 -85 -29 -3 -53 -11 -53 -16 0
-10 190 -226 290 -330 50 -52 60 -58 97 -58 81 0 103 74 63 213 -24 86 -146
308 -168 307 -4 0 -23 -14 -42 -31z"/>
<path d="M11040 8468 c-78 -29 -126 -134 -101 -220 19 -65 41 -95 139 -191 99
-98 215 -190 271 -213 45 -19 96 -11 115 19 40 61 27 130 -38 210 -18 23 -64
96 -102 162 -37 66 -78 136 -90 156 -35 57 -140 98 -194 77z"/>
<path d="M11776 7985 c-11 -8 -28 -15 -38 -15 -24 0 -34 -26 -18 -45 16 -19
74 -19 89 -1 14 17 11 68 -4 72 -5 2 -19 -3 -29 -11z"/>
<path d="M11528 7888 c-8 -26 -29 -59 -55 -84 l-42 -41 32 -30 c47 -44 136
-110 282 -208 72 -48 144 -100 160 -115 28 -25 66 -50 79 -50 17 0 46 48 46
78 0 42 -17 67 -142 209 -152 172 -256 263 -320 278 -25 6 -28 4 -40 -37z"/>
<path d="M9550 6959 c-47 -5 -185 -8 -308 -7 -195 2 -224 0 -239 -15 -16 -16
-25 -58 -39 -183 -6 -59 -6 -62 17 -70 26 -8 143 -7 172 2 46 14 47 5 47 -396
l0 -379 28 -21 c25 -21 35 -22 134 -17 158 7 171 20 157 152 -12 105 -11 653
1 660 5 3 47 6 92 7 121 1 118 -2 118 132 0 86 -3 116 -14 125 -21 17 -70 20
-166 10z"/>
<path d="M10019 6646 c-103 -28 -192 -105 -251 -218 -32 -61 -33 -66 -33 -183
0 -112 2 -123 29 -175 44 -85 82 -127 154 -170 92 -54 185 -75 270 -60 112 19
200 70 215 125 7 23 -48 133 -74 148 -12 8 -31 4 -70 -12 -89 -39 -244 -17
-244 34 0 19 9 20 190 26 105 3 191 7 192 7 1 1 12 19 24 39 36 58 32 148 -10
239 -51 111 -119 166 -246 199 -69 18 -85 18 -146 1z m94 -217 c20 -9 57 -56
57 -72 0 -3 -7 -13 -16 -21 -22 -23 -139 -23 -148 0 -11 29 -6 45 23 75 32 31
47 35 84 18z"/>
<path d="M8328 6606 c-136 -73 -197 -150 -198 -249 0 -61 17 -94 82 -156 64
-60 96 -115 82 -139 -6 -9 -38 -31 -73 -48 -89 -43 -91 -50 -34 -125 88 -115
109 -119 230 -47 90 54 137 100 164 161 19 46 20 56 10 103 -14 61 -49 119
-119 195 -29 31 -52 64 -52 72 0 23 48 56 92 63 48 8 62 31 42 68 -24 47 -115
146 -132 145 -10 -1 -52 -20 -94 -43z"/>
<path d="M10680 6574 c-25 -7 -68 -14 -96 -14 -87 0 -88 -4 -95 -264 -4 -121
-12 -270 -20 -329 -17 -140 -17 -140 125 -145 139 -5 142 -3 151 100 24 307
39 338 150 317 47 -9 60 -8 72 4 37 37 64 257 33 278 -18 12 -127 5 -163 -12
-32 -15 -57 -6 -57 21 0 20 -33 61 -47 59 -5 0 -28 -7 -53 -15z"/>
<path d="M6660 6516 c-25 -14 -77 -36 -117 -51 -90 -33 -99 -42 -83 -92 15
-48 75 -211 135 -368 26 -66 59 -154 74 -195 16 -41 40 -104 55 -139 14 -36
26 -70 26 -77 0 -7 13 -42 30 -78 24 -55 33 -66 53 -66 14 0 87 25 163 56 124
50 262 101 407 151 65 22 79 45 65 101 -16 65 0 74 54 31 58 -47 91 -60 168
-66 174 -15 349 93 404 248 23 62 18 216 -10 294 -41 118 -124 199 -241 235
-85 26 -139 25 -217 -4 -115 -44 -188 -103 -225 -186 -18 -39 -21 -66 -21
-193 0 -129 -2 -149 -18 -163 -32 -27 -323 -155 -345 -152 -18 2 -29 23 -60
108 -70 195 -118 335 -163 469 -59 179 -58 177 -134 137z m1129 -282 c48 -34
65 -126 36 -189 -15 -30 -34 -45 -78 -59 -28 -9 -87 23 -108 58 -36 58 -19
154 33 190 29 21 87 20 117 0z"/>
<path d="M11240 6458 c-14 -6 -39 -17 -56 -24 -52 -22 -124 -104 -163 -184
-35 -72 -36 -79 -36 -185 0 -104 2 -113 32 -171 47 -90 124 -157 207 -178 127
-32 266 -14 352 45 165 113 202 441 65 592 -74 82 -161 117 -290 116 -47 0
-97 -5 -111 -11z m171 -261 c46 -31 61 -63 56 -119 -7 -87 -67 -137 -140 -117
-52 14 -77 54 -77 122 0 62 19 94 72 120 43 22 49 21 89 -6z"/>
<path d="M11964 6260 c-60 -19 -128 -73 -151 -120 -29 -58 -28 -86 2 -176 25
-74 30 -118 19 -148 -8 -22 -66 -30 -109 -16 -31 10 -39 10 -56 -6 -10 -9 -19
-28 -19 -42 0 -39 30 -146 47 -164 27 -30 113 -43 196 -29 197 35 245 115 201
331 -14 70 -15 94 -6 114 14 32 53 42 95 25 60 -25 77 -10 77 72 0 46 -5 63
-30 97 -16 23 -39 46 -51 53 -29 15 -175 21 -215 9z"/>
<path d="M8160 5321 c-14 -28 -14 -1767 1 -1776 8 -6 165 -8 326 -5 10 0 13
81 15 356 3 333 4 358 21 368 16 9 25 4 61 -36 40 -43 49 -66 131 -315 107
-327 104 -318 126 -347 18 -23 23 -24 199 -25 147 -1 181 1 186 12 6 16 1 35
-98 341 -82 254 -109 310 -185 388 l-56 57 54 24 c142 63 206 236 197 531 -5
155 -17 200 -77 291 -41 63 -102 110 -176 135 -53 18 -84 20 -386 20 -314 0
-329 -1 -339 -19z m517 -377 c41 -6 92 -48 109 -91 36 -84 0 -207 -66 -230
-40 -14 -196 -17 -204 -5 -11 18 -8 325 3 332 12 7 97 4 158 -6z"/>
</g>
</svg>
